<?xml version="1.0" encoding="utf-8"?>
<!-- Generator: Adobe Illustrator 22.0.1, SVG Export Plug-In . SVG Version: 6.00 Build 0)  -->
<svg version="1.1" id="Layer_1" xmlns="http://www.w3.org/2000/svg" xmlns:xlink="http://www.w3.org/1999/xlink" x="0px" y="0px"
	 viewBox="0 0 555.3 555.3" style="enable-background:new 0 0 555.3 555.3;" xml:space="preserve">
<style type="text/css">
	.st0{filter:url(#e);}
	.st1{fill:url(#SVGID_3_);}
	.st2{mask:url(#d_2_);}
	.st3{clip-path:url(#SVGID_5_);}
	.st4{fill:#024721;}
	.st5{fill:none;stroke:#FFFFFF;stroke-width:0.295;}
	.st6{clip-path:url(#SVGID_7_);}
	.st7{fill:#FFFFFF;}
	.st8{opacity:0.3;}
	.st9{clip-path:url(#SVGID_9_);}
	.st10{opacity:0.2;}
	.st11{clip-path:url(#SVGID_13_);}
	.st12{fill:#019147;}
	.st13{opacity:0.1;}
	.st14{clip-path:url(#SVGID_15_);}
	.st15{clip-path:url(#SVGID_17_);}
	.st16{clip-path:url(#SVGID_19_);}
	.st17{fill:#66C0BE;}
	.st18{clip-path:url(#SVGID_21_);}
	.st19{clip-path:url(#SVGID_23_);}
	.st20{clip-path:url(#SVGID_25_);}
	.st21{fill:#B5E57C;}
	.st22{clip-path:url(#SVGID_27_);}
	.st23{clip-path:url(#SVGID_29_);}
	.st24{fill:none;}
	.st25{fill:#83C241;}
</style>
<filter  color-interpolation-filters="sRGB" filterUnits="userSpaceOnUse" height="563.25" id="e" width="573.25" x="0" y="0">
	<feFlood  flood-color="#fff" result="bg"></feFlood>
	<feBlend  in="SourceGraphic" in2="bg" mode="normal"></feBlend>
</filter>
<g>
	<g>
		<defs>
			<rect id="SVGID_1_" width="555.3" height="555.3"/>
		</defs>
		<clipPath id="SVGID_2_">
			<use xlink:href="#SVGID_1_"  style="overflow:visible;"/>
		</clipPath>
	</g>
</g>
<g>
	<defs>
		<filter id="Adobe_OpacityMaskFilter" filterUnits="userSpaceOnUse" x="-9" y="-3" width="573.3" height="563.3">
			<feColorMatrix  type="matrix" values="1 0 0 0 0  0 1 0 0 0  0 0 1 0 0  0 0 0 1 0"/>
		</filter>
	</defs>
	<mask maskUnits="userSpaceOnUse" x="-9" y="-3" width="573.3" height="563.3" id="d_2_">
		<g class="st0">
			<g transform="translate(-9 -7)">
				
					<radialGradient id="SVGID_3_" cx="-140.4242" cy="-24.3298" r="1" gradientTransform="matrix(277.63 0 0 277.63 39273.3125 7040.6289)" gradientUnits="userSpaceOnUse">
					<stop  offset="0" style="stop-color:#FFFFFF"/>
					<stop  offset="0.1" style="stop-color:#ECECEC"/>
					<stop  offset="0.31" style="stop-color:#BCBCBC"/>
					<stop  offset="0.61" style="stop-color:#6F6F6F"/>
					<stop  offset="0.98" style="stop-color:#050505"/>
					<stop  offset="1" style="stop-color:#000000"/>
				</radialGradient>
				<rect x="9" y="11" class="st1" width="555.3" height="555.3"/>
			</g>
		</g>
	</mask>
	<g class="st2">
		<defs>
			<rect id="SVGID_4_" x="-9" y="-3" width="573.3" height="563.3"/>
		</defs>
		<clipPath id="SVGID_5_">
			<use xlink:href="#SVGID_4_"  style="overflow:visible;"/>
		</clipPath>
		<g class="st3">
			<path class="st4" d="M277.6,559.3c153.4,0,277.6-124.3,277.6-277.6S431,4,277.6,4S0,128.3,0,281.6S124.3,559.3,277.6,559.3"/>
		</g>
	</g>
</g>
<polygon class="st5" points="67.2,297 78.4,199.6 127.8,127.7 196.7,77.2 278.1,65.9 394.6,99.1 452.8,155.6 479,203.1 477.2,339.8 
	446.3,404 390.4,455.1 307.8,484.2 218.1,479.5 132.5,432.5 "/>
<g>
	<g>
		<defs>
			<rect id="SVGID_6_" width="555.3" height="555.3"/>
		</defs>
		<clipPath id="SVGID_7_">
			<use xlink:href="#SVGID_6_"  style="overflow:visible;"/>
		</clipPath>
		<g class="st6">
			<path class="st7" d="M127.2,130.2c1.5,0,2.8-1.2,2.8-2.8c0-1.5-1.2-2.8-2.8-2.8c-1.5,0-2.8,1.2-2.8,2.8l0,0
				C124.5,129,125.7,130.2,127.2,130.2"/>
			<path class="st7" d="M196.7,80.1c1.5,0,2.8-1.2,2.8-2.7s-1.2-2.8-2.7-2.8s-2.8,1.2-2.8,2.7c0,0,0,0,0,0.1
				C194,78.9,195.2,80.1,196.7,80.1"/>
			<path class="st7" d="M278.1,68.9c1.5,0,2.8-1.2,2.8-2.8c0-1.5-1.2-2.8-2.8-2.8s-2.8,1.2-2.8,2.8l0,0
				C275.3,67.6,276.5,68.9,278.1,68.9"/>
			<path class="st7" d="M394.7,102.3c1.5,0,2.8-1.2,2.8-2.8c0-1.5-1.2-2.8-2.8-2.8c-1.5,0-2.8,1.2-2.8,2.8S393.1,102.3,394.7,102.3
				L394.7,102.3"/>
			<path class="st7" d="M453,158.4c1.5,0,2.8-1.2,2.8-2.8c0-1.5-1.2-2.8-2.8-2.8c-1.5,0-2.8,1.2-2.8,2.8l0,0
				C450.2,157.1,451.4,158.4,453,158.4L453,158.4"/>
			<path class="st7" d="M478.5,205.9c1.5,0,2.8-1.2,2.8-2.8c0-1.5-1.2-2.8-2.8-2.8c-1.5,0-2.8,1.2-2.8,2.8S476.9,205.9,478.5,205.9
				L478.5,205.9"/>
			<path class="st7" d="M477.1,342.8c1.5,0,2.8-1.2,2.8-2.8c0-1.5-1.2-2.8-2.8-2.8c-1.5,0-2.8,1.2-2.8,2.8l0,0
				C474.3,341.5,475.6,342.8,477.1,342.8L477.1,342.8"/>
			<path class="st7" d="M446.3,407c1.5,0,2.8-1.2,2.8-2.8s-1.2-2.8-2.8-2.8s-2.8,1.2-2.8,2.8l0,0C443.5,405.7,444.7,407,446.3,407"
				/>
			<path class="st7" d="M390.6,458.1c1.5,0,2.8-1.2,2.8-2.8s-1.2-2.8-2.8-2.8s-2.8,1.2-2.8,2.8l0,0
				C387.8,456.8,389,458.1,390.6,458.1"/>
			<path class="st7" d="M308,486.8c1.5,0,2.8-1.2,2.8-2.8c0-1.5-1.2-2.8-2.8-2.8c-1.5,0-2.8,1.2-2.8,2.8
				C305.3,485.6,306.5,486.8,308,486.8L308,486.8"/>
			<path class="st7" d="M218,482.2c1.5,0,2.8-1.2,2.8-2.8s-1.2-2.8-2.8-2.8s-2.8,1.2-2.8,2.8l0,0C215.2,480.9,216.5,482.2,218,482.2
				"/>
			<path class="st7" d="M132.6,435.3c1.5,0,2.8-1.2,2.8-2.8c0-1.5-1.2-2.8-2.8-2.8c-1.5,0-2.8,1.2-2.8,2.8l0,0
				C129.8,434.1,131,435.3,132.6,435.3"/>
			<path class="st7" d="M66.9,300c1.5,0,2.8-1.2,2.8-2.8c0-1.5-1.2-2.8-2.8-2.8c-1.5,0-2.8,1.2-2.8,2.8l0,0
				C64.1,298.7,65.3,300,66.9,300C66.8,300,66.8,300,66.9,300"/>
			<path class="st7" d="M78.3,202.5c1.5,0,2.8-1.2,2.8-2.8s-1.2-2.8-2.8-2.8c-1.5,0-2.8,1.2-2.8,2.8l0,0
				C75.5,201.2,76.7,202.5,78.3,202.5"/>
			<g>
				<g>
					<g class="st8">
						<defs>
							<rect id="SVGID_8_" x="109.7" y="109" class="st8" width="326.8" height="321.7"/>
						</defs>
						<clipPath id="SVGID_9_">
							<use xlink:href="#SVGID_8_"  style="overflow:visible;"/>
						</clipPath>
						<g class="st9">
							<polygon class="st7" points="118.7,289.4 127.1,216.3 164.1,162.4 215.8,124.5 276.9,116 364.2,141 407.9,183.3 427.5,219 
								426.1,321.5 403,369.6 361.1,407.9 299.1,429.7 231.8,426.2 167.7,391 							"/>
						</g>
					</g>
				</g>
				<g>
					<g>
						<defs>
							<polygon id="SVGID_10_" points="215.8,124.5 164.1,162.4 127.1,216.3 118.7,289.4 167.7,391 231.8,426.2 299.1,429.7 
								361.1,407.9 403,369.6 426.1,321.5 427.5,219 407.9,183.3 364.2,141 276.9,116 							"/>
						</defs>
						<clipPath id="SVGID_11_">
							<use xlink:href="#SVGID_10_"  style="overflow:visible;"/>
						</clipPath>
					</g>
				</g>
			</g>
		</g>
	</g>
</g>
<g>
	<g class="st10">
		<defs>
			<rect id="SVGID_12_" x="154.4" y="133.3" class="st10" width="258.4" height="260"/>
		</defs>
		<clipPath id="SVGID_13_">
			<use xlink:href="#SVGID_12_"  style="overflow:visible;"/>
		</clipPath>
		<g class="st11">
			<polygon class="st12" points="163.4,161.7 166.8,392.3 403.9,370.5 365,140.3 			"/>
		</g>
	</g>
	<g>
		<g>
			<g class="st13">
				<defs>
					<rect id="SVGID_14_" x="88.3" y="78.3" class="st13" width="340.6" height="357.3"/>
				</defs>
				<clipPath id="SVGID_15_">
					<use xlink:href="#SVGID_14_"  style="overflow:visible;"/>
				</clipPath>
				<g class="st14">
					<polygon class="st4" points="215.3,123.3 117.4,290 299.9,430.7 409.4,182.5 					"/>
				</g>
			</g>
			<g>
				<g>
					<g class="st10">
						<defs>
							<rect id="SVGID_16_" x="86.7" y="65" class="st10" width="385.3" height="348.6"/>
						</defs>
						<clipPath id="SVGID_17_">
							<use xlink:href="#SVGID_16_"  style="overflow:visible;"/>
						</clipPath>
						<g class="st15">
							<polygon class="st4" points="276.9,115.1 126.2,215.8 362,408.8 428.8,218.1 							"/>
						</g>
					</g>
					<g>
						<g>
							<g class="st13">
								<defs>
									<rect id="SVGID_18_" x="63.5" y="69.2" class="st13" width="427.2" height="419.6"/>
								</defs>
								<clipPath id="SVGID_19_">
									<use xlink:href="#SVGID_18_"  style="overflow:visible;"/>
								</clipPath>
								<g class="st16">
									<polygon class="st17" points="276.9,115.1 162.8,162.4 231.8,427.5 427,321.9 									"/>
								</g>
							</g>
							<g>
								<g>
									<g class="st10">
										<defs>
											<rect id="SVGID_20_" x="94.9" y="91.1" class="st10" width="367.6" height="324"/>
										</defs>
										<clipPath id="SVGID_21_">
											<use xlink:href="#SVGID_20_"  style="overflow:visible;"/>
										</clipPath>
										<g class="st18">
											<polygon class="st17" points="430.6,216.3 162.8,162.4 116.4,291.6 363.3,408.8 											"/>
										</g>
									</g>
									<g>
										<g>
											<g class="st10">
												<defs>
													<rect id="SVGID_22_" x="181.4" y="162.1" class="st10" width="211.4" height="184"/>
												</defs>
												<clipPath id="SVGID_23_">
													<use xlink:href="#SVGID_22_"  style="overflow:visible;"/>
												</clipPath>
												<g class="st19">
													<polygon class="st4" points="197.1,169.1 190.4,268.5 383.8,345.2 377.6,253.8 													"/>
												</g>
											</g>
											<g>
												<g>
													<g class="st10">
														<defs>
															<rect id="SVGID_24_" x="157.8" y="140.8" class="st10" width="252.9" height="252.6"/>
														</defs>
														<clipPath id="SVGID_25_">
															<use xlink:href="#SVGID_24_"  style="overflow:visible;"/>
														</clipPath>
														<g class="st20">
															<polygon class="st21" points="294.9,147.8 166.8,392.3 323.6,379 401.6,199.5 															"/>
														</g>
													</g>
													<g>
														<g>
															<g class="st10">
																<defs>
																	<rect id="SVGID_26_" x="190.3" y="247.3" class="st10" width="220.3" height="84.7"/>
																</defs>
																<clipPath id="SVGID_27_">
																	<use xlink:href="#SVGID_26_"  style="overflow:visible;"/>
																</clipPath>
																<g class="st22">
																	<polygon class="st4" points="225.2,282.1 199.3,330.9 401.6,302 377.1,254.3 																	"/>
																</g>
															</g>
															<g>
																<g>
																	<g class="st10">
																		<defs>
																			<rect id="SVGID_28_" x="181.6" y="178.6" class="st10" width="204.9" height="152.1"/>
																		</defs>
																		<clipPath id="SVGID_29_">
																			<use xlink:href="#SVGID_28_"  style="overflow:visible;"/>
																		</clipPath>
																		<g class="st23">
																			<polygon class="st17" points="275.5,185.6 190.6,268.2 345,329.7 377.6,254.4 																			"/>
																		</g>
																	</g>
																	<g>
																		<g>
																			<g class="st8">
																				<g>
																					<polygon class="st4" points="224.9,281.9 309.4,315.3 354.4,308.9 266.1,202.6 																					"/>
																				</g>
																			</g>
																		</g>
																	</g>
																</g>
															</g>
														</g>
													</g>
												</g>
											</g>
										</g>
									</g>
								</g>
							</g>
						</g>
					</g>
					<g>
						<rect class="st24" width="555.3" height="555.3"/>
						<g>
							<path class="st7" d="M344.5,332.6c1.5,0,2.8-1.2,2.8-2.8c0-1.5-1.2-2.8-2.8-2.8c-1.5,0-2.8,1.2-2.8,2.8l0,0
								C341.8,331.4,343,332.6,344.5,332.6"/>
							<path class="st7" d="M225.1,285.3c1.5,0,2.8-1.2,2.8-2.8c0-1.5-1.2-2.8-2.8-2.8c-1.5,0-2.8,1.2-2.8,2.8l0,0
								C222.3,284,223.5,285.3,225.1,285.3C225,285.3,225,285.3,225.1,285.3"/>
							<path class="st7" d="M295,151c1.5,0,2.8-1.2,2.8-2.8c0-1.5-1.2-2.8-2.8-2.8c-1.5,0-2.8,1.2-2.8,2.8S293.5,151,295,151
								L295,151"/>
							<path class="st7" d="M377.7,208c1.5,0,2.8-1.2,2.8-2.8c0-1.5-1.2-2.8-2.8-2.8c-1.5,0-2.8,1.2-2.8,2.8l0,0
								C374.9,206.8,376.1,208,377.7,208"/>
							<path class="st7" d="M427.5,222.1c1.5,0,2.8-1.2,2.8-2.8c0-1.5-1.2-2.8-2.8-2.8c-1.5,0-2.8,1.2-2.8,2.8l0,0
								C424.7,220.8,425.9,222.1,427.5,222.1"/>
							<path class="st7" d="M400.5,303.9c1.5,0,2.8-1.2,2.8-2.8c0-1.5-1.2-2.8-2.8-2.8c-1.5,0-2.8,1.2-2.8,2.8l0,0
								C397.7,302.7,399,303.9,400.5,303.9"/>
							<path class="st7" d="M317.8,268.3c1.5,0,2.8-1.2,2.8-2.8c0-1.5-1.2-2.8-2.8-2.8c-1.5,0-2.8,1.2-2.8,2.8l0,0
								C315,267,316.3,268.3,317.8,268.3L317.8,268.3"/>
							<path class="st7" d="M261.5,202.5c1.5,0,2.8-1.2,2.8-2.8c0-1.5-1.2-2.8-2.8-2.8c-1.5,0-2.8,1.2-2.8,2.8l0,0
								C258.8,201.2,260,202.5,261.5,202.5"/>
							<path class="st7" d="M197.5,172.5c1.5,0,2.8-1.2,2.8-2.8c0-1.5-1.2-2.8-2.8-2.8c-1.5,0-2.8,1.2-2.8,2.8l0,0
								C194.7,171.2,195.9,172.5,197.5,172.5L197.5,172.5"/>
							<path class="st7" d="M217.3,127.5c1.5,0,2.8-1.2,2.8-2.8s-1.2-2.8-2.8-2.8s-2.8,1.2-2.8,2.8l0,0
								C214.5,126.2,215.7,127.5,217.3,127.5"/>
							<path class="st7" d="M363.8,143.8c1.5,0,2.8-1.2,2.8-2.7s-1.2-2.8-2.7-2.8s-2.8,1.2-2.8,2.7l0,0
								C361,142.5,362.2,143.8,363.8,143.8"/>
							<path class="st7" d="M127,219.3c1.5,0,2.8-1.2,2.8-2.8s-1.2-2.8-2.8-2.8s-2.8,1.2-2.8,2.8l0,0
								C124.2,218,125.5,219.3,127,219.3"/>
							<path class="st7" d="M165.4,317.9c1.5,0,2.8-1.2,2.8-2.8c0-1.5-1.2-2.8-2.8-2.8c-1.5,0-2.8,1.2-2.8,2.8l0,0
								C162.7,316.6,163.9,317.9,165.4,317.9"/>
							<path class="st7" d="M168.2,394.2c1.5,0,2.8-1.2,2.8-2.8c0-1.5-1.2-2.8-2.8-2.8c-1.5,0-2.8,1.2-2.8,2.8l0,0
								C165.4,392.9,166.7,394.2,168.2,394.2"/>
							<path class="st7" d="M317.8,391.4c1.5,0,2.8-1.2,2.8-2.8c0-1.5-1.2-2.8-2.8-2.8c-1.5,0-2.8,1.2-2.8,2.8
								S316.3,391.4,317.8,391.4L317.8,391.4"/>
							<path class="st7" d="M361.5,409.8c1.5,0,2.8-1.2,2.8-2.8c0-1.5-1.2-2.8-2.8-2.8c-1.5,0-2.8,1.2-2.8,2.8l0,0
								C358.7,408.5,360,409.8,361.5,409.8"/>
							<path class="st7" d="M241.2,388.9c1.5,0,2.8-1.2,2.8-2.8c0-1.5-1.2-2.8-2.8-2.8c-1.5,0-2.8,1.2-2.8,2.8l0,0
								C238.4,387.6,239.7,388.9,241.2,388.9"/>
							<path class="st7" d="M256.8,325.4c1.5,0,2.8-1.2,2.8-2.8c0-1.5-1.2-2.8-2.8-2.8c-1.5,0-2.8,1.2-2.8,2.8l0,0
								C254,324.1,255.3,325.4,256.8,325.4"/>
							<path class="st7" d="M118.7,292c1.5,0,2.8-1.2,2.8-2.8s-1.2-2.8-2.8-2.8c-1.5,0-2.8,1.2-2.8,2.8l0,0
								C115.9,290.7,117.1,292,118.7,292"/>
							<path class="st7" d="M275.9,452.5c1.5,0,2.8-1.2,2.8-2.8c0-1.5-1.2-2.8-2.8-2.8c-1.5,0-2.8,1.2-2.8,2.8
								C273.1,451.2,274.3,452.5,275.9,452.5C275.8,452.5,275.8,452.5,275.9,452.5"/>
							<path class="st7" d="M431.4,361c1.5,0,2.8-1.2,2.8-2.8c0-1.5-1.2-2.8-2.8-2.8c-1.5,0-2.8,1.2-2.8,2.8l0,0
								C428.7,359.8,429.9,361,431.4,361"/>
							<path class="st7" d="M458.5,277.8c1.5,0,2.8-1.2,2.8-2.8c0-1.5-1.2-2.8-2.8-2.8c-1.5,0-2.8,1.2-2.8,2.8
								C455.7,276.6,457,277.8,458.5,277.8L458.5,277.8"/>
							<path class="st7" d="M403.3,151c1.5,0,2.8-1.2,2.8-2.8s-1.2-2.8-2.8-2.8s-2.8,1.2-2.8,2.8l0,0
								C400.5,149.7,401.8,151,403.3,151L403.3,151"/>
							<path class="st7" d="M311.1,93.4c1.5,0,2.8-1.2,2.8-2.8c0-1.5-1.2-2.8-2.8-2.8s-2.8,1.2-2.8,2.8l0,0
								C308.3,92.1,309.6,93.4,311.1,93.4"/>
							<path class="st7" d="M165.2,128.8c1.5,0,2.8-1.2,2.8-2.8s-1.2-2.8-2.8-2.8s-2.8,1.2-2.8,2.8l0,0
								C162.4,127.5,163.6,128.8,165.2,128.8L165.2,128.8"/>
							<path class="st7" d="M88.8,248.2c1.5,0,2.8-1.2,2.8-2.8s-1.2-2.8-2.8-2.8c-1.5,0-2.8,1.2-2.8,2.8l0,0
								C86.1,247,87.3,248.2,88.8,248.2"/>
							<path class="st7" d="M129.8,355.5c1.5,0,2.8-1.2,2.8-2.8c0-1.5-1.2-2.8-2.8-2.8c-1.5,0-2.8,1.2-2.8,2.8l0,0
								C127,354.2,128.3,355.5,129.8,355.5"/>
						</g>
						<polyline class="st5" points="344.5,331.2 361.9,407 431.6,358.3 401.6,301.2 477.1,340 431.4,358.3 446.5,404.2 361.5,407 
							390.6,455.3 317.9,389 361.5,407 400.6,301.2 317.8,266.6 344.5,329.9 400.5,301.2 377.7,205.3 319.2,265.5 261.5,199.7 
							224.8,282.5 317.8,265.5 256.8,322.6 166.8,315.1 225.1,282.5 256.8,322.7 317.8,388.6 344.5,329.9 256.7,322.6 275.9,449.7 
							317.8,388.6 308,484 275.9,449.7 241.2,386.1 256.8,322.6 168.2,391.8 218,479.4 241.2,386.1 168.2,391.4 165.4,315.9 
							130.5,352.7 168.2,391.4 132.3,432.5 129.8,352.7 118.7,289.2 165.4,315.1 127.2,216.5 197.6,169.7 127.2,127.5 165.2,126 
							197.5,169.7 78.3,199.7 127,216.5 88.8,245.5 66.9,297.2 118.6,289.2 127,216.5 						"/>
						<polyline class="st5" points="477.1,340 458.5,275 400.5,301.2 427.5,219.3 458.5,275 478.5,203.1 428.6,219.3 377.7,205.3 
							403.3,148.3 427.4,219.7 453,155.6 403,148.3 394.7,99.5 363.8,141 403,148.3 261.7,199.7 295,148.3 217.3,124.7 197.5,169.7 
							295.2,148.3 311.1,90.6 363.8,141.1 295,148.3 278.3,66.4 311.1,90.7 394.7,99.5 						"/>
						<polyline class="st5" points="165.2,125.9 196.7,77.3 217.3,124.7 165.2,126.1 						"/>
						<line class="st5" x1="278.1" y1="66.1" x2="217.4" y2="124.7"/>
						<polyline class="st5" points="261.5,199.7 197.5,170 225.1,282.5 128.4,216.5 						"/>
						<line class="st5" x1="377.7" y1="205.3" x2="261.6" y2="199.7"/>
						<line class="st5" x1="275.9" y1="449.7" x2="218" y2="479.4"/>
						<line class="st5" x1="129.8" y1="352.7" x2="66.7" y2="297.2"/>
						<line class="st5" x1="88.8" y1="245.5" x2="78.3" y2="199.6"/>
						<line class="st5" x1="295" y1="148.3" x2="377.7" y2="205.9"/>
						<line class="st5" x1="225.1" y1="282.7" x2="168.2" y2="391.4"/>
						<rect class="st24" width="555.3" height="555.3"/>
						<g>
							<path class="st25" d="M131.8,458.5c15.4,0,27.9-12.5,27.9-27.9s-12.5-27.9-27.9-27.9S104,415.2,104,430.6
								S116.4,458.5,131.8,458.5L131.8,458.5"/>
							<path class="st7" d="M134,417.7L134,417.7v7.8h-5.5v-7.9l0,0c0.1-1.5,1.4-2.7,2.9-2.6c1.4,0.1,2.5,1.2,2.6,2.6l0,0V417.7z
								 M135.4,433.2v-15.8l0,0v-0.2l0,0c0-2.3-1.9-4.1-4.1-4.1c-2.3,0-4.1,1.8-4.1,4.1l0,0v16c-3.8,2.3-5,7.2-2.7,11s7.2,5,11,2.7
								s5-7.2,2.7-11C137.5,434.8,136.5,433.8,135.4,433.2"/>
							<path class="st7" d="M142.1,421h-3.9c-0.5,0-0.8-0.4-0.8-0.8c0-0.5,0.4-0.8,0.8-0.8h3.9c0.5,0,0.8,0.4,0.8,0.8
								C143,420.6,142.6,421,142.1,421"/>
							<path class="st7" d="M142.1,425.3h-3.9c-0.5,0-0.8-0.4-0.8-0.8c0-0.5,0.4-0.8,0.8-0.8h3.9c0.5,0,0.8,0.4,0.8,0.8
								C143,424.9,142.6,425.3,142.1,425.3"/>
							<path class="st7" d="M142.1,429.6h-3.9c-0.5,0-0.8-0.4-0.8-0.8c0-0.5,0.4-0.8,0.8-0.8h3.9c0.5,0,0.8,0.4,0.8,0.8
								C143,429.2,142.6,429.6,142.1,429.6"/>
							<path class="st25" d="M79,221.4c11.5,0,20.9-9.4,20.9-20.9s-9.4-20.9-20.9-20.9s-20.9,9.4-20.9,20.9l0,0
								C58.1,212,67.5,221.4,79,221.4L79,221.4"/>
						</g>
						<rect class="st24" width="555.3" height="555.3"/>
						<g>
							<path class="st12" d="M164.3,336c11.5,0,20.9-9.4,20.9-20.9s-9.4-20.9-20.9-20.9s-20.9,9.4-20.9,20.9l0,0
								C143.4,326.7,152.8,336,164.3,336L164.3,336"/>
							<path class="st12" d="M317.8,288.2c15.4,0,27.9-12.4,27.9-27.8s-12.4-27.9-27.8-27.9S290,244.9,290,260.3l0,0
								C290,275.8,302.5,288.2,317.8,288.2L317.8,288.2"/>
						</g>
						<rect class="st24" width="555.3" height="555.3"/>
						<g>
							<path class="st12" d="M396.9,127.4c15.4,0,27.9-12.5,27.9-27.9s-12.5-27.8-27.9-27.8S369,84.2,369,99.5
								S381.5,127.4,396.9,127.4L396.9,127.4"/>
							<path class="st12" d="M201.1,99.5c11.5,0,20.9-9.4,20.9-20.9s-9.4-20.9-20.9-20.9s-20.9,9.4-20.9,20.9S189.6,99.5,201.1,99.5
								L201.1,99.5"/>
							<path class="st7" d="M209.7,89.1h-0.9v-2.9h0.9V89.1z M205.7,89.1h-0.9v-2.9h0.9V89.1z M201.9,89.1H201v-2.9h0.9V89.1z
								 M198.1,89.1h-0.9v-2.9h0.9V89.1z M194.4,89.1h-0.9v-2.9h0.9V89.1z M212,89.2V75.7c0-0.4-0.3-0.7-0.7-0.7l0,0h-1.2l-0.2-8.5
								h-0.7L209,75h-17c-0.4,0-0.7,0.3-0.7,0.7l0,0v13.5c0,0.4,0.3,0.7,0.7,0.7l0,0h19.2C211.6,89.9,211.9,89.6,212,89.2L212,89.2"
								/>
							<path class="st12" d="M363.5,432.9c15.4,0,27.9-12.5,27.9-27.9s-12.5-27.9-27.9-27.9s-27.9,12.5-27.9,27.9
								S348.1,432.9,363.5,432.9L363.5,432.9"/>
							<path class="st7" d="M374.4,397.5c-0.7,0-1.3-0.6-1.3-1.3s0.6-1.3,1.3-1.3c0.7,0,1.3,0.6,1.3,1.3l0,0
								C375.7,396.9,375.1,397.5,374.4,397.5L374.4,397.5 M376.5,392.5h-26c-0.7,0-1.4,0.6-1.4,1.3c0,0,0,0,0,0.1v4.8
								c0,0.7,0.6,1.4,1.3,1.4c0,0,0,0,0.1,0h26c0.7,0,1.4-0.6,1.4-1.3c0,0,0,0,0-0.1v-4.8C377.9,393.2,377.3,392.5,376.5,392.5
								L376.5,392.5"/>
							<path class="st7" d="M374.4,406.3c-0.7-0.1-1.2-0.7-1.2-1.4c0.1-0.6,0.5-1.1,1.2-1.2c0.7,0.1,1.2,0.7,1.2,1.4
								C375.5,405.7,375,406.2,374.4,406.3 M376.5,401.3h-26c-0.7,0-1.4,0.6-1.4,1.3c0,0,0,0,0,0.1v4.8c0,0.7,0.6,1.4,1.3,1.4
								c0,0,0,0,0.1,0h26c0.7,0,1.4-0.6,1.4-1.3c0,0,0,0,0-0.1v-4.8C377.9,401.9,377.3,401.3,376.5,401.3L376.5,401.3"/>
							<path class="st7" d="M374.4,415.1c-0.7,0-1.3-0.6-1.3-1.3s0.6-1.3,1.3-1.3c0.7,0,1.3,0.6,1.3,1.3l0,0
								C375.7,414.5,375.1,415.1,374.4,415.1L374.4,415.1 M376.5,410.1h-26c-0.7,0-1.4,0.6-1.4,1.3c0,0,0,0,0,0.1v4.8
								c0,0.7,0.6,1.4,1.3,1.4c0,0,0,0,0.1,0h26c0.7,0,1.4-0.6,1.4-1.3c0,0,0,0,0-0.1v-4.8C377.9,410.7,377.3,410.1,376.5,410.1
								L376.5,410.1"/>
							<path class="st12" d="M476.3,360.5c11.5,0,20.9-9.4,20.9-20.9s-9.4-20.9-20.9-20.9s-20.9,9.4-20.9,20.9l0,0
								C455.4,351.1,464.7,360.5,476.3,360.5L476.3,360.5"/>
							<path class="st7" d="M408.9,95.9L408.9,95.9c0-4.4-3.6-8-8-8c-1.9,0-3.8,0.7-5.3,2c-4.2-1.4-8.7,0.8-10.1,4.9
								c-0.1,0.3-0.2,0.7-0.3,1c-4.1,1.7-6,6.3-4.4,10.4c1.7,4.1,6.3,6,10.4,4.4c0.7-0.3,1.4-0.7,2-1.2c2.4,1.7,5.5,1.9,8.1,0.5
								c3.8,2.3,8.7,1,10.9-2.8c2.3-3.8,1-8.7-2.8-10.9C409.4,96.1,409.1,96,408.9,95.9L408.9,95.9z M391,103.9c-1.1,0-2-0.9-2-2
								s0.9-2,2-2c1.1,0,1.9,0.9,1.9,1.9C393,103,392.1,103.9,391,103.9C391,103.9,391,103.9,391,103.9L391,103.9z M397.2,103.9
								c-1.1,0-2-0.9-2-2s0.9-2,2-2c1.1,0,1.9,0.9,1.9,1.9C399.2,103,398.3,103.9,397.2,103.9C397.3,103.9,397.3,103.9,397.2,103.9
								L397.2,103.9z M403.5,103.9c-1.1,0-1.9-0.9-1.9-2s0.9-2,2-2c1.1,0,1.9,0.9,1.9,1.9C405.4,103,404.6,103.9,403.5,103.9
								C403.5,103.9,403.5,103.9,403.5,103.9L403.5,103.9z"/>
						</g>
						<polygon class="st7" points="486.8,349.6 466.2,349.6 466.2,340.4 467.2,340.4 467.8,327.3 469.4,327.3 469.8,340.4 
							470.9,340.4 475,336.6 475,340.4 479.3,336.7 479.3,340.4 483.1,336.6 483.1,340.4 486.7,336.7 						"/>
						<path class="st25" d="M242,400.6c7.7,0,13.9-6.2,13.9-13.9c0-7.7-6.2-13.9-13.9-13.9s-13.9,6.2-13.9,13.9l0,0
							C228.1,394.3,234.3,400.6,242,400.6L242,400.6"/>
						<path class="st7" d="M246.5,389.6c0,2.3-1.9,4.2-4.2,4.2c-0.2,0-0.4-0.2-0.4-0.4c0-0.2,0.2-0.4,0.4-0.4l0,0
							c1.9,0,3.4-1.6,3.4-3.5c0-0.2,0.1-0.4,0.3-0.5c0.2,0,0.4,0.1,0.5,0.3C246.5,389.6,246.5,389.6,246.5,389.6 M247.4,389.9
							c0-0.2,0-0.5-0.1-0.7c0-0.3-0.1-0.6-0.2-0.9c-0.9-3.2-3.8-5.9-4.7-10.5c-1.1,4.7-4,7.6-4.8,10.7c-0.1,0.2-0.1,0.4-0.1,0.7
							c0,0.2-0.1,0.5-0.1,0.7c0,2.8,2.2,5,5,5S247.4,392.7,247.4,389.9"/>
						<path class="st25" d="M196.9,198.1c15.4,0,27.8-12.5,27.8-27.9s-12.5-27.8-27.9-27.8S169,154.9,169,170.2
							S181.5,198.1,196.9,198.1L196.9,198.1"/>
						<path class="st12" d="M308.9,497.5c7.7,0,13.9-6.2,14-13.9c0-7.7-6.2-13.9-13.9-14c-7.7,0-13.9,6.2-14,13.9l0,0
							C295,491.3,301.2,497.5,308.9,497.5L308.9,497.5"/>
						<path class="st7" d="M318.7,481.5c-5.3-5.3-14-5.3-19.3,0l0,0l1.4,1.4l0,0c4.6-4.6,11.9-4.6,16.5,0l0,0L318.7,481.5z"/>
						<path class="st7" d="M307.7,489.7L307.7,489.7l1.4,1.4l1.4-1.4C309.7,489,308.5,489,307.7,489.7"/>
						<path class="st7" d="M304.9,487L304.9,487l1.4,1.4l0,0c1.5-1.5,4-1.5,5.5,0l0,0l1.4-1.4C310.9,484.7,307.2,484.7,304.9,487
							L304.9,487"/>
						<path class="st7" d="M302.1,484.2L302.1,484.2l1.5,1.5l0,0c3-3,8-3,11,0l0,0l1.4-1.4C312.2,480.3,306,480.3,302.1,484.2"/>
						<path class="st25" d="M427,239.5c11.5,0,20.9-9.4,20.9-20.9s-9.4-20.9-20.9-20.9s-20.9,9.4-20.9,20.9S415.5,239.5,427,239.5
							L427,239.5"/>
						<path class="st7" d="M430.5,221c-0.5,1-1.4,1.7-2.4,2.1c-2.2,0.7-4.5-0.5-5.2-2.7c-0.3-1-0.2-2.2,0.2-3.2
							c0.7-1.4,2.2-2.3,3.7-2.3c2.3,0,4.2,1.8,4.2,4.1C431,219.7,430.8,220.4,430.5,221 M440.2,214.4c-0.6-1-2-1.3-3-0.7
							c-0.6,0.4-1,1.1-1,1.8l-4.5,1.4c-0.8-1.7-2.4-2.9-4.2-3.1v-4.4c0.2,0,0.4-0.1,0.5-0.2c1-0.6,1.3-2,0.7-3l0,0
							c-0.6-1-2-1.3-3-0.7s-1.3,2-0.7,3l0,0c0.3,0.4,0.7,0.8,1.2,0.9v4.4c-0.4,0-0.8,0.1-1.1,0.2c-1.4,0.4-2.5,1.4-3.2,2.7
							c0,0.1-0.1,0.2-0.1,0.2l-4-1.3c0-0.4-0.1-0.9-0.3-1.2c-0.6-1-2-1.3-3-0.7s-1.3,2-0.7,3c0.6,1,2,1.3,3,0.7l0,0
							c0.2-0.2,0.4-0.4,0.6-0.6l4,1.3c-0.2,0.9-0.1,1.8,0.1,2.7c0.3,0.9,0.8,1.7,1.5,2.3l-2.6,3.6c-1.2-0.3-2.3,0.4-2.6,1.6
							c-0.3,1.2,0.4,2.3,1.6,2.6s2.3-0.4,2.6-1.6c0.1-0.6,0-1.2-0.3-1.7c-0.1-0.1-0.2-0.2-0.3-0.3l2.6-3.6c1.3,0.8,2.9,1,4.3,0.5
							l0,0c0.4-0.1,0.7-0.3,1-0.5l2.6,3.6c-0.6,0.7-0.7,1.7-0.2,2.5c0.6,1,2,1.4,3,0.8c1-0.6,1.4-2,0.8-3c-0.5-0.9-1.5-1.3-2.5-1
							l-2.7-3.7c0.5-0.4,0.8-0.9,1.1-1.5c0.5-1.1,0.7-2.3,0.5-3.5l4.4-1.4c0.7,1,2.1,1.2,3,0.5C440.4,216.5,440.7,215.3,440.2,214.4
							"/>
						<g>
							<path class="st7" d="M325.9,250h-15.5c-1.5,0-2.8,1.2-2.8,2.8v15.5c0,1.5,1.2,2.8,2.8,2.8h15.5c1.5,0,2.8-1.2,2.8-2.8v-15.5
								C328.7,251.2,327.4,250,325.9,250z M326.4,266.7c0,1.1-0.9,2-2,2H312c-1.1,0-2-0.9-2-2v-12.4c0-1.1,0.9-2,2-2h12.4
								c1.1,0,2,0.9,2,2V266.7z"/>
							<path class="st7" d="M316.3,261.1h1.7l-0.9-2.9L316.3,261.1z"/>
							<path class="st7" d="M324.3,253.2H312c-0.6,0-1.1,0.5-1.1,1.1v12.4c0,0.6,0.5,1.1,1.1,1.1h12.4c0.6,0,1.1-0.5,1.1-1.1v-12.4
								C325.4,253.7,324.9,253.2,324.3,253.2z M318.8,263.2c-0.1,0-0.3,0-0.3-0.2l-0.3-1.2h-2.1l-0.3,1.2c0,0.1-0.2,0.2-0.3,0.2
								c-0.2,0-0.6-0.2-0.6-0.4c0,0,0-0.1,0-0.1l1.7-5.5c0.1-0.2,0.3-0.3,0.6-0.3c0.3,0,0.5,0.1,0.6,0.3l1.7,5.5c0,0,0,0.1,0,0.1
								C319.4,263,319.1,263.2,318.8,263.2z M321,262.9c0,0.2-0.2,0.3-0.5,0.3c-0.2,0-0.5-0.1-0.5-0.3v-5.6c0-0.2,0.2-0.3,0.5-0.3
								c0.2,0,0.5,0.1,0.5,0.3V262.9z"/>
							<path class="st7" d="M319.9,272.6c-0.3,0-0.5,0.2-0.5,0.5v3.9c0,0.3,0.2,0.5,0.5,0.5c0.3,0,0.5-0.2,0.5-0.5V273
								C320.3,272.8,320.1,272.6,319.9,272.6z"/>
							<path class="st7" d="M316.4,272.6c-0.3,0-0.5,0.2-0.5,0.5v3.9c0,0.3,0.2,0.5,0.5,0.5c0.3,0,0.5-0.2,0.5-0.5V273
								C316.9,272.8,316.7,272.6,316.4,272.6z"/>
							<path class="st7" d="M313.1,272.6c-0.3,0-0.5,0.2-0.5,0.5v3.9c0,0.3,0.2,0.5,0.5,0.5c0.3,0,0.5-0.2,0.5-0.5V273
								C313.6,272.8,313.4,272.6,313.1,272.6z"/>
							<path class="st7" d="M323.2,272.6c-0.3,0-0.5,0.2-0.5,0.5v3.9c0,0.3,0.2,0.5,0.5,0.5c0.3,0,0.5-0.2,0.5-0.5V273
								C323.6,272.8,323.4,272.6,323.2,272.6z"/>
							<path class="st7" d="M316,244.1v3.9c0,0.3,0.2,0.5,0.5,0.5c0.3,0,0.5-0.2,0.5-0.5v-3.9c0-0.3-0.2-0.5-0.5-0.5
								C316.2,243.7,316,243.9,316,244.1z"/>
							<path class="st7" d="M319.4,244.1v3.9c0,0.3,0.2,0.5,0.5,0.5c0.3,0,0.5-0.2,0.5-0.5v-3.9c0-0.3-0.2-0.5-0.5-0.5
								C319.6,243.7,319.4,243.9,319.4,244.1z"/>
							<path class="st7" d="M323.2,248.5c0.3,0,0.5-0.2,0.5-0.5v-3.9c0-0.3-0.2-0.5-0.5-0.5c-0.3,0-0.5,0.2-0.5,0.5v3.9
								C322.7,248.3,322.9,248.5,323.2,248.5z"/>
							<path class="st7" d="M312.7,244.1v3.9c0,0.3,0.2,0.5,0.5,0.5c0.3,0,0.5-0.2,0.5-0.5v-3.9c0-0.3-0.2-0.5-0.5-0.5
								C312.9,243.7,312.7,243.9,312.7,244.1z"/>
							<path class="st7" d="M334.5,258.4h-3.9c-0.3,0-0.5,0.2-0.5,0.5c0,0.3,0.2,0.5,0.5,0.5h3.9c0.3,0,0.5-0.2,0.5-0.5
								C335,258.6,334.8,258.4,334.5,258.4z"/>
							<path class="st7" d="M334.5,261.8h-3.9c-0.3,0-0.5,0.2-0.5,0.5c0,0.3,0.2,0.5,0.5,0.5h3.9c0.3,0,0.5-0.2,0.5-0.5
								C335,262,334.8,261.8,334.5,261.8z"/>
							<path class="st7" d="M334.5,265.1h-3.9c-0.3,0-0.5,0.2-0.5,0.5c0,0.3,0.2,0.5,0.5,0.5h3.9c0.3,0,0.5-0.2,0.5-0.5
								C335,265.3,334.8,265.1,334.5,265.1z"/>
							<path class="st7" d="M334.5,255h-3.9c-0.3,0-0.5,0.2-0.5,0.5c0,0.3,0.2,0.5,0.5,0.5h3.9c0.3,0,0.5-0.2,0.5-0.5
								C335,255.2,334.8,255,334.5,255z"/>
							<path class="st7" d="M305.6,261.8h-3.9c-0.3,0-0.5,0.2-0.5,0.5c0,0.3,0.2,0.5,0.5,0.5h3.9c0.3,0,0.5-0.2,0.5-0.5
								C306.1,262,305.9,261.8,305.6,261.8z"/>
							<path class="st7" d="M305.6,258.4h-3.9c-0.3,0-0.5,0.2-0.5,0.5c0,0.3,0.2,0.5,0.5,0.5h3.9c0.3,0,0.5-0.2,0.5-0.5
								C306.1,258.6,305.9,258.4,305.6,258.4z"/>
							<path class="st7" d="M305.6,255h-3.9c-0.3,0-0.5,0.2-0.5,0.5c0,0.3,0.2,0.5,0.5,0.5h3.9c0.3,0,0.5-0.2,0.5-0.5
								C306.1,255.2,305.9,255,305.6,255z"/>
							<path class="st7" d="M305.6,265.1h-3.9c-0.3,0-0.5,0.2-0.5,0.5c0,0.3,0.2,0.5,0.5,0.5h3.9c0.3,0,0.5-0.2,0.5-0.5
								C306.1,265.3,305.9,265.1,305.6,265.1z"/>
						</g>
						<path class="st7" d="M203.3,153.5c-3.7,0-6.7,3-6.7,6.7c0,0,0,0,0,0c0,1.1,0.2,2.1,0.7,3l-2.4,2.5c-3.4-1.3-7.3,0.4-8.6,3.9
							c-1,2.5-0.3,5.4,1.7,7.3l-2.3,6.4h-2.1v3.8h17.8v-3.8h-2l-2.3-6.4c2.3-2.1,2.8-5.6,1.2-8.3l2.2-2.3c0.8,0.4,1.6,0.6,2.5,0.6
							l1.6,6.9l1-0.2l0.4,1.9l2.3-0.5l-0.4-1.9l0.9-0.2l-1.6-7.1c3-2.2,3.6-6.4,1.5-9.3C207.5,154.5,205.5,153.5,203.3,153.5
							L203.3,153.5z M192.6,175c-1.7,0-3.1-1.4-3.1-3.1c0-1.7,1.4-3.1,3.1-3.1c1.7,0,3.1,1.4,3.1,3.1
							C195.7,173.6,194.3,175,192.6,175C192.6,175,192.6,175,192.6,175L192.6,175z M203.3,163.3c-1.7,0-3.1-1.4-3.1-3.1
							c0-1.7,1.4-3.1,3.1-3.1c1.7,0,3.1,1.4,3.1,3.1C206.4,161.9,205,163.3,203.3,163.3C203.3,163.3,203.3,163.3,203.3,163.3
							L203.3,163.3z"/>
						<path class="st7" d="M87.4,197.4h-5.3v-5.3c0-0.6-0.5-1.1-1.1-1.1c0,0,0,0,0,0H68.3c-0.6,0-1.1,0.5-1.1,1.1c0,0,0,0,0,0v12.7
							c0,0.6,0.5,1.1,1.1,1.1h5.3v5.3c0,0.6,0.5,1.1,1.1,1.1c0,0,0,0,0,0h12.7c0.6,0,1.1-0.5,1.1-1.1v-12.7
							C88.4,197.9,87.9,197.4,87.4,197.4z M69.4,203.8v-10.5h10.5v4.2h-5.3c-0.6,0-1.1,0.5-1.1,1.1c0,0,0,0,0,0v5.3L69.4,203.8z
							 M79.9,199.6v4.2h-4.2v-4.2H79.9z M86.3,210.1H75.7v-4.2H81c0.6,0,1.1-0.5,1.1-1.1v-5.3h4.2V210.1z M89.7,188.8h-5.4
							c-0.6,0-1.1,0.5-1.1,1.1c0,0,0,0,0,0v5.4c0,0.6,0.5,1.1,1.1,1.1h5.4c0.6,0,1.1-0.5,1.1-1.1c0,0,0,0,0,0v-5.4
							C90.8,189.3,90.3,188.8,89.7,188.8C89.7,188.8,89.7,188.8,89.7,188.8L89.7,188.8z M88.6,194.2h-3.3v-3.3h3.3V194.2z"/>
					</g>
				</g>
			</g>
		</g>
	</g>
</g>
<rect x="215.9" y="195.6" class="st24" width="147.5" height="120.7"/>
<g>
	<path class="st7" d="M168.6,303.7c0,1.3-1,2.3-2.3,2.3s-2.3-1-2.3-2.3s1-2.3,2.3-2.3S168.6,302.4,168.6,303.7z"/>
	<path class="st7" d="M162,306.8c0,1-0.8,1.7-1.7,1.7s-1.7-0.8-1.7-1.7c0-1,0.8-1.7,1.7-1.7S162,305.8,162,306.8z"/>
	<path class="st7" d="M166.8,327.1c0,1.3-1,2.3-2.3,2.3s-2.3-1-2.3-2.3c0-1.3,1-2.3,2.3-2.3S166.8,325.9,166.8,327.1z"/>
	<path class="st7" d="M159,313.3l3.7,5.2c0,0.1,0.1,0.1,0.1,0.2v3l3.3,1.8v-4.8c0-0.1,0-0.1,0.1-0.2l3.7-5.2H159z"/>
	<path class="st7" d="M158.4,312.6h11.9l1.4-1.9H169c-0.1-1.2-1-2.1-2.2-2.1c-1.2,0-2.2,0.9-2.2,2.1h-7.5L158.4,312.6z"/>
</g>
</svg>
